<?xml version="1.0" standalone="no"?>
<!DOCTYPE svg PUBLIC "-//W3C//DTD SVG 20010904//EN"
 "http://www.w3.org/TR/2001/REC-SVG-20010904/DTD/svg10.dtd">
<svg version="1.0" xmlns="http://www.w3.org/2000/svg"
 width="200.000000pt" height="200.000000pt" viewBox="0 0 200.000000 200.000000"
 preserveAspectRatio="xMidYMid meet">

<g transform="translate(0.000000,200.000000) scale(0.100000,-0.100000)"
fill="#000000" stroke="none">
<path d="M905 1810 c-217 -39 -384 -177 -461 -380 -25 -68 -28 -87 -28 -200 0
-105 3 -135 23 -190 65 -186 230 -335 421 -381 77 -19 212 -16 285 5 196 58
354 210 408 394 23 79 27 243 8 312 -19 70 -43 130 -51 130 -4 0 -15 -18 -24
-40 -14 -36 -14 -46 -1 -97 8 -31 15 -91 15 -133 0 -139 -42 -248 -134 -347
-200 -215 -531 -219 -737 -9 -109 111 -162 269 -141 416 15 105 45 178 104
254 55 72 135 131 226 168 48 19 76 23 172 23 128 0 171 -11 272 -72 54 -32
60 -33 99 -23 l42 12 -29 24 c-47 39 -151 95 -212 114 -71 22 -191 31 -257 20z"/>
<path d="M818 1528 l-208 -140 6 -192 c4 -105 8 -192 9 -194 2 -2 101 61 220
140 l216 143 -5 65 c-3 36 -6 122 -6 193 0 95 -3 127 -12 126 -7 0 -106 -64
-220 -141z m211 -113 l0 -120 -185 -124 c-102 -68 -187 -122 -189 -119 -2 2
-7 76 -11 165 l-7 161 189 126 189 126 7 -47 c3 -27 7 -102 7 -168z"/>
<path d="M926 1427 c-22 -18 -27 -28 -22 -45 7 -22 8 -22 37 -5 21 13 29 25
29 45 0 34 -7 35 -44 5z"/>
<path d="M753 1362 c-52 -37 -52 -38 -53 -91 l0 -53 28 18 c15 9 42 27 59 38
30 19 33 25 33 74 0 28 -3 52 -7 52 -5 -1 -31 -18 -60 -38z"/>
<path d="M858 1312 c-20 -12 -28 -25 -28 -44 0 -33 9 -35 44 -7 15 12 26 30
26 45 0 28 -6 29 -42 6z"/>
<path d="M1353 1596 c-84 -22 -153 -44 -153 -47 0 -3 27 -20 59 -38 58 -30 60
-33 81 -99 13 -37 25 -70 29 -74 7 -8 10 -2 101 180 34 68 55 121 48 121 -7
-1 -82 -20 -165 -43z"/>
<path d="M865 1109 c-116 -78 -211 -142 -213 -144 -4 -3 331 -148 343 -148 13
0 425 274 425 283 0 6 -328 151 -340 150 -3 0 -99 -64 -215 -141z"/>
<path d="M433 543 c-10 -3 -13 -46 -13 -163 0 -153 1 -159 22 -174 32 -22 65
-20 71 4 3 13 -1 24 -14 30 -17 10 -19 23 -19 160 0 137 -2 150 -17 149 -10 0
-24 -3 -30 -6z"/>
<path d="M568 539 c-24 -13 -23 -46 1 -59 11 -5 22 -10 25 -10 8 0 36 31 36
40 0 10 -29 40 -38 40 -4 0 -15 -5 -24 -11z"/>
<path d="M703 543 c-10 -3 -13 -49 -13 -179 l0 -174 30 0 c30 0 30 0 30 58 l1
57 27 -31 c15 -17 36 -43 47 -58 16 -23 26 -27 54 -24 l34 3 -52 69 -52 69 47
48 48 49 -34 0 c-27 0 -44 -9 -77 -42 l-43 -42 0 102 c0 107 -3 113 -47 95z"/>
<path d="M1277 543 c-17 -4 -19 -16 -15 -160 3 -149 4 -156 27 -174 34 -28 71
-25 71 5 0 13 -7 26 -15 30 -12 4 -15 31 -15 156 0 162 2 157 -53 143z"/>
<path d="M1683 543 c-10 -3 -13 -49 -13 -179 l0 -174 30 0 c30 0 30 0 30 58
l1 57 27 -30 c15 -17 36 -43 47 -58 17 -23 27 -28 55 -25 l33 3 -52 69 -52 69
47 48 48 49 -34 0 c-27 0 -44 -9 -77 -42 l-43 -42 0 102 c0 107 -3 113 -47 95z"/>
<path d="M100 350 l0 -160 35 0 35 0 0 70 c0 67 1 70 19 60 11 -5 41 -37 67
-70 41 -52 51 -60 80 -60 19 0 34 3 34 6 0 11 -67 98 -99 128 -17 17 -31 34
-31 39 0 5 27 39 60 75 l60 67 -35 3 c-33 3 -41 -2 -95 -60 l-59 -63 -1 63 0
62 -35 0 -35 0 0 -160z"/>
<path d="M960 350 l0 -160 30 0 30 0 0 70 c0 68 1 70 21 60 11 -6 39 -38 62
-70 38 -54 45 -59 80 -59 20 -1 37 2 37 5 0 12 -68 99 -104 133 l-35 34 64 71
65 71 -37 3 c-33 3 -41 -2 -94 -60 l-58 -63 -1 63 0 62 -30 0 -30 0 0 -160z"/>
<path d="M1438 434 c-19 -6 -21 -13 -13 -36 4 -9 18 -12 45 -10 41 4 70 -10
70 -33 0 -8 -19 -14 -50 -17 -28 -3 -59 -13 -70 -23 -27 -24 -26 -79 0 -105
18 -18 31 -20 98 -18 l77 3 3 96 c3 122 -8 141 -89 145 -30 1 -62 0 -71 -2z
m102 -169 c0 -32 -3 -35 -28 -35 -32 0 -52 16 -52 41 0 20 14 27 53 28 24 1
27 -2 27 -34z"/>
<path d="M560 310 l0 -120 30 0 30 0 0 120 0 120 -30 0 -30 0 0 -120z"/>
</g>
</svg>
